#!OML:ASF H:\LiuWeirdWalks\Patient Classification 1\Patient 1\Session 1\male.ASF
:FULLY-SPECIFIED
:DEGREES
575
root -0.512466 18.1628 -11.3775 5.9371 7.82881 -0.273642
lowerback 9.7448 -1.84726 -7.25992
upperback 2.33086 -3.21895 -1.79934
thorax -2.72872 -1.55701 2.57556
lowerneck -19.8609 1.47436 5.05492
upperneck 31.8496 0.454142 -0.375692
head 14.2784 0.757499 -0.946156
rclavicle 2.18663e-014 -9.54166e-015
rhumerus -25.7083 -28.9533 3.555
rradius 30.8875
rwrist -3.84891
rhand -23.6575 -7.43019
rfingers 7.12502
rthumb 2.80811 -37.3914
lclavicle 2.18663e-014 -9.54166e-015
lhumerus -23.7046 29.8323 18.643
lradius 29.9945
lwrist -3.90895
lhand -16.2855 5.15114
lfingers 7.12502
lthumb 9.9247 34.8972
rfemur -25.7542 -3.16263 20.9257
rtibia 29.9342
rfoot -4.28988 -17.5112
rtoes 0.897936
lfemur 6.58803 -5.70658 -12.9666
ltibia 19.5731
lfoot -2.01879 9.34049
ltoes -25.669
576
root -0.53625 18.1667 -11.2941 5.95133 7.77999 -0.165799
lowerback 9.72657 -1.83575 -7.10788
upperback 2.33351 -3.18561 -1.75021
thorax -2.72487 -1.54169 2.53784
lowerneck -19.8417 1.48926 5.04051
upperneck 31.8596 0.539917 -0.536976
head 14.2806 0.769896 -0.993989
rclavicle -1.19271e-015 1.11319e-014
rhumerus -25.6351 -28.9757 3.41416
rradius 30.8466
rwrist -3.85036
rhand -23.6841 -7.44365
rfingers 7.12502
rthumb 2.78243 -37.4052
lclavicle -1.19271e-015 1.11319e-014
lhumerus -23.7469 29.7292 18.6153
lradius 30.103
lwrist -3.79
lhand -16.3807 5.17079
lfingers 7.12502
lthumb 9.83292 34.9212
rfemur -25.5642 -3.19195 20.9452
rtibia 30.1326
rfoot -4.59165 -17.4746
rtoes 1.00028
lfemur 6.48537 -5.63954 -12.9436
ltibia 20.1283
lfoot -1.60837 9.00974
ltoes -25.9391
577
root -0.559005 18.1704 -11.2114 5.96794 7.73181 -0.06051
lowerback 9.69675 -1.82581 -6.94868
upperback 2.33766 -3.15246 -1.69711
thorax -2.71308 -1.52681 2.49968
lowerneck -19.8036 1.50339 5.02103
upperneck 31.8639 0.626629 -0.69525
head 14.2762 0.782416 -1.03958
rclavicle 7.15625e-015 -2.38542e-014
rhumerus -25.5383 -29.004 3.25741
rradius 30.805
rwrist -3.84791
rhand -23.6928 -7.52571
rfingers 7.12502
rthumb 2.77409 -37.4874
lclavicle 7.15625e-015 -2.38542e-014
lhumerus -23.7824 29.6188 18.5827
lradius 30.2164
lwrist -3.65651
lhand -16.4927 5.23933
lfingers 7.12502
lthumb 9.72481 34.9948
rfemur -25.3788 -3.25106 20.9642
rtibia 30.3309
rfoot -4.9178 -17.4039
rtoes 0.997359
lfemur 6.35671 -5.56045 -12.9195
ltibia 20.7062
lfoot -1.16025 8.6649
ltoes -26.0665
578
root -0.5806 18.1743 -11.1293 5.98875 7.68851 0.0653567
lowerback 9.66073 -1.81586 -6.80394
upperback 2.33781 -3.12058 -1.64507
thorax -2.70107 -1.51238 2.46836
lowerneck -19.7701 1.5193 4.99665
upperneck 31.8747 0.71691 -0.852104
head 14.2762 0.796226 -1.08315
rclavicle 3.97569e-014 7.15625e-015
rhumerus -25.4249 -29.0524 3.09578
rradius 30.7604
rwrist -3.8232
rhand -23.6984 -7.65105
rfingers 7.12502
rthumb 2.76867 -37.6128
lclavicle 3.97569e-014 7.15625e-015
lhumerus -23.806 29.5012 18.5537
lradius 30.3286
lwrist -3.50443
lhand -16.6113 5.32029
lfingers 7.12502
lthumb 9.61035 35.0811
rfemur -25.198 -3.35207 20.9582
rtibia 30.5307
rfoot -5.25129 -17.2993
rtoes 0.904329
lfemur 6.20947 -5.47562 -12.9199
ltibia 21.299
lfoot -0.675506 8.30399
ltoes -26.0636
579
root -0.60105 18.1783 -11.0476 6.00785 7.64142 0.203164
lowerback 9.61407 -1.80268 -6.67061
upperback 2.33706 -3.08472 -1.59006
thorax -2.68356 -1.49606 2.44558
lowerneck -19.7096 1.52721 4.94722
upperneck 31.8478 0.803919 -1.00173
head 14.253 0.806099 -1.11983
rclavicle 2.96189e-014 3.57812e-014
rhumerus -25.3051 -29.0889 2.92987
rradius 30.7305
rwrist -3.80697
rhand -23.6786 -7.77638
rfingers 7.12502
rthumb 2.78772 -37.7379
lclavicle 2.96189e-014 3.57812e-014
lhumerus -23.822 29.4168 18.525
lradius 30.4298
lwrist -3.39376
lhand -16.6978 5.36353
lfingers 7.12502
lthumb 9.5269 35.1282
rfemur -25.0159 -3.47391 20.9344
rtibia 30.7291
rfoot -5.58206 -17.1792
rtoes 0.746702
lfemur 6.05261 -5.38873 -12.9393
ltibia 21.9019
lfoot -0.157517 7.93075
ltoes -25.9488
